<?xml version="1.0" encoding="utf-8"?>
<!-- Generator: Adobe Illustrator 16.0.0, SVG Export Plug-In . SVG Version: 6.00 Build 0)  -->
<!DOCTYPE svg PUBLIC "-//W3C//DTD SVG 1.1//EN" "http://www.w3.org/Graphics/SVG/1.1/DTD/svg11.dtd">
<svg version="1.1" id="Layer_1" xmlns="http://www.w3.org/2000/svg" xmlns:xlink="http://www.w3.org/1999/xlink" x="0px" y="0px"
	 width="720px" height="720px" viewBox="0 0 720 720" enable-background="new 0 0 720 720" xml:space="preserve">
<g>
	<rect x="39.327" y="13.743" fill="#FBDE34" width="504.67" height="504.501"/>
</g>
<g>
	<path fill="#343433" d="M303.449,335.518l38.566-22.329c10.152,16.578,23.346,28.758,46.688,28.758
		c19.624,0,32.14-9.812,32.14-23.345c0-16.239-12.855-21.991-34.508-31.462l-11.839-5.077
		c-34.172-14.546-56.841-32.814-56.841-71.383c0-35.523,27.066-62.59,69.357-62.59c30.109,0,51.762,10.489,67.322,37.893
		l-36.877,23.682c-8.119-14.546-16.913-20.298-30.445-20.298c-13.871,0-22.668,8.797-22.668,20.298
		c0,14.21,8.797,19.962,29.094,28.759l11.84,5.074c40.26,17.255,62.928,34.846,62.928,74.427c0,42.63-33.492,65.972-78.487,65.972
		C345.738,383.896,317.318,362.922,303.449,335.518"/>
	<g>
		<path fill="#343433" d="M115.117,150.257h160.015v44.238H160.903v48.387h100.355v43.256H160.903v50.371h115.77v45.221H115.117
			V150.257z"/>
	</g>
</g>
</svg>
